<svg width="54" height="54" viewBox="0 0 54 54" fill="none" xmlns="http://www.w3.org/2000/svg">
<path d="M18 24.75C17.555 24.75 17.12 24.882 16.75 25.1292C16.38 25.3764 16.0916 25.7278 15.9213 26.139C15.751 26.5501 15.7064 27.0025 15.7932 27.439C15.8801 27.8754 16.0943 28.2763 16.409 28.591C16.7237 28.9057 17.1246 29.12 17.5611 29.2068C17.9975 29.2936 18.4499 29.249 18.861 29.0787C19.2722 28.9084 19.6236 28.62 19.8708 28.25C20.118 27.88 20.25 27.445 20.25 27C20.25 26.4033 20.013 25.831 19.591 25.409C19.169 24.9871 18.5967 24.75 18 24.75ZM27 24.75C26.555 24.75 26.12 24.882 25.75 25.1292C25.38 25.3764 25.0916 25.7278 24.9213 26.139C24.751 26.5501 24.7064 27.0025 24.7932 27.439C24.8801 27.8754 25.0943 28.2763 25.409 28.591C25.7237 28.9057 26.1246 29.12 26.5611 29.2068C26.9975 29.2936 27.4499 29.249 27.861 29.0787C28.2722 28.9084 28.6236 28.62 28.8708 28.25C29.118 27.88 29.25 27.445 29.25 27C29.25 26.4033 29.013 25.831 28.591 25.409C28.169 24.9871 27.5967 24.75 27 24.75ZM36 24.75C35.555 24.75 35.12 24.882 34.75 25.1292C34.38 25.3764 34.0916 25.7278 33.9213 26.139C33.751 26.5501 33.7064 27.0025 33.7932 27.439C33.8801 27.8754 34.0944 28.2763 34.409 28.591C34.7237 28.9057 35.1246 29.12 35.5611 29.2068C35.9975 29.2936 36.4499 29.249 36.861 29.0787C37.2722 28.9084 37.6236 28.62 37.8708 28.25C38.118 27.88 38.25 27.445 38.25 27C38.25 26.4033 38.013 25.831 37.591 25.409C37.169 24.9871 36.5967 24.75 36 24.75ZM27 4.5C24.0453 4.5 21.1195 5.08198 18.3896 6.21271C15.6598 7.34344 13.1794 9.00078 11.0901 11.0901C6.87053 15.3097 4.5 21.0326 4.5 27C4.48033 32.1956 6.27929 37.2342 9.585 41.2425L5.085 45.7425C4.7728 46.0589 4.56131 46.4607 4.47722 46.8972C4.39312 47.3336 4.4402 47.7853 4.6125 48.195C4.79938 48.5998 5.10234 48.94 5.48291 49.1724C5.86348 49.4047 6.30451 49.5188 6.75 49.5H27C32.9674 49.5 38.6903 47.1295 42.9099 42.9099C47.1295 38.6903 49.5 32.9674 49.5 27C49.5 21.0326 47.1295 15.3097 42.9099 11.0901C38.6903 6.87053 32.9674 4.5 27 4.5ZM27 45H12.1725L14.265 42.9075C14.6841 42.4859 14.9193 41.9157 14.9193 41.3213C14.9193 40.7268 14.6841 40.1566 14.265 39.735C11.3188 36.7921 9.48415 32.9187 9.07356 28.7748C8.66297 24.6309 9.70188 20.4728 12.0133 17.0089C14.3247 13.5451 17.7655 10.9898 21.7497 9.77844C25.7338 8.56707 30.0147 8.77456 33.863 10.3656C37.7113 11.9566 40.8889 14.8326 42.8545 18.5038C44.8201 22.1749 45.452 26.414 44.6425 30.4988C43.8331 34.5836 41.6325 38.2614 38.4155 40.9055C35.1985 43.5497 31.1642 44.9967 27 45Z" fill="#183B94"/>
</svg>
