<svg width="54" height="54" viewBox="0 0 54 54" fill="none" xmlns="http://www.w3.org/2000/svg">
<g clip-path="url(#clip0_22_258)">
<path d="M53.9081 21.064C53.6786 20.3064 53.0526 19.7361 52.2797 19.5774L35.6036 16.2381L28.9536 1.26959C28.6111 0.500168 27.8417 0.00242615 26.998 0.00242615C26.1543 0.00242615 25.3865 0.503521 25.0406 1.27471L18.394 16.24L1.71285 19.5792C0.94175 19.7378 0.322418 20.3048 0.093003 21.0624C-0.138176 21.81 0.0693557 22.6283 0.629569 23.1952L12.247 34.8042L9.00056 51.4281C8.83856 52.2396 9.04777 53.026 9.67548 53.5304C10.0501 53.8259 10.531 53.9879 11.0304 53.9879C11.3308 53.9879 11.6244 53.9255 11.891 53.804L26.998 47.1016L42.1303 53.8125C42.3868 53.9355 42.6719 53.9981 42.9808 53.9981C43.4617 53.9981 43.9342 53.8344 44.307 53.5374C44.938 53.0362 45.1507 52.2263 44.9972 51.4282L41.7422 34.8008L53.3698 23.1918C53.93 22.6333 54.1376 21.8166 53.9081 21.064ZM38.1667 31.2203C36.9736 32.4115 36.4507 34.1192 36.7762 35.7745L38.9445 46.8604L29.0515 42.4732C28.3986 42.183 27.6982 42.0378 26.998 42.0378C26.2994 42.0378 25.6008 42.183 24.9461 42.4732L15.048 46.8638L17.2163 35.7728C17.5386 34.1192 17.0189 32.4133 15.8259 31.2221L8.06746 23.4686L19.3846 21.2041C20.996 20.8818 22.351 19.7968 23.0175 18.2951L26.9979 9.33687L30.9784 18.2968C31.6449 19.7985 32.9982 20.8818 34.6096 21.2058L45.9302 23.4719L38.1667 31.2203Z" fill="#D87A7A"/>
</g>
<defs>
<clipPath id="clip0_22_258">
<rect width="54" height="54" fill="white"/>
</clipPath>
</defs>
</svg>
