<svg width="42" height="41" viewBox="0 0 42 41" fill="none" xmlns="http://www.w3.org/2000/svg">
<g clip-path="url(#clip0_9_732)">
<g filter="url(#filter0_d_9_732)">
<path d="M25.7988 20.9637C26.9014 19.8033 27.5226 18.2814 27.5407 16.6959C27.5407 14.9844 26.847 13.3431 25.6121 12.1329C24.3773 10.9227 22.7024 10.2429 20.956 10.2429C19.2097 10.2429 17.5348 10.9227 16.3 12.1329C15.0651 13.3431 14.3714 14.9844 14.3714 16.6959C14.3895 18.2814 15.0107 19.8033 16.1133 20.9637C14.578 21.7129 13.2569 22.8244 12.2686 24.1981C11.2804 25.5719 10.6561 27.1648 10.4519 28.8336C10.4011 29.2864 10.5359 29.7404 10.8266 30.0958C11.1174 30.4511 11.5403 30.6788 12.0023 30.7286C12.4643 30.7784 12.9275 30.6463 13.2901 30.3613C13.6528 30.0764 13.885 29.662 13.9359 29.2092C14.1437 27.5552 14.9616 26.0328 16.2354 24.9288C17.5092 23.8248 19.151 23.2154 20.8515 23.2154C22.552 23.2154 24.1938 23.8248 25.4676 24.9288C26.7414 26.0328 27.5593 27.5552 27.7672 29.2092C27.8156 29.647 28.0348 30.0494 28.3789 30.3325C28.723 30.6157 29.1654 30.7576 29.6137 30.7286H29.8053C30.262 30.6771 30.6793 30.4508 30.9665 30.0991C31.2536 29.7473 31.3872 29.2986 31.3383 28.8507C31.1492 27.1907 30.5446 25.6021 29.5782 24.2261C28.6118 22.8502 27.3135 21.7295 25.7988 20.9637ZM20.9038 19.7346C20.2905 19.7346 19.691 19.5564 19.1811 19.2225C18.6712 18.8886 18.2738 18.414 18.0391 17.8587C17.8044 17.3035 17.743 16.6925 17.8626 16.103C17.9823 15.5136 18.2776 14.9721 18.7112 14.5472C19.1449 14.1222 19.6974 13.8328 20.2989 13.7155C20.9004 13.5983 21.5238 13.6585 22.0904 13.8885C22.657 14.1184 23.1412 14.5079 23.482 15.0076C23.8227 15.5074 24.0045 16.0949 24.0045 16.6959C24.0045 17.5018 23.6778 18.2747 23.0963 18.8446C22.5148 19.4144 21.7262 19.7346 20.9038 19.7346ZM33.0977 3.41428H8.70991C7.3239 3.41428 5.99466 3.95386 5.01461 4.91432C4.03455 5.87477 3.48396 7.17743 3.48396 8.53571V32.4357C3.48396 33.794 4.03455 35.0967 5.01461 36.0571C5.99466 37.0176 7.3239 37.5571 8.70991 37.5571H33.0977C34.4837 37.5571 35.8129 37.0176 36.793 36.0571C37.773 35.0967 38.3236 33.794 38.3236 32.4357V8.53571C38.3236 7.17743 37.773 5.87477 36.793 4.91432C35.8129 3.95386 34.4837 3.41428 33.0977 3.41428ZM34.8397 32.4357C34.8397 32.8885 34.6561 33.3227 34.3294 33.6428C34.0028 33.963 33.5597 34.1429 33.0977 34.1429H8.70991C8.24791 34.1429 7.80483 33.963 7.47814 33.6428C7.15146 33.3227 6.96793 32.8885 6.96793 32.4357V8.53571C6.96793 8.08295 7.15146 7.64873 7.47814 7.32858C7.80483 7.00843 8.24791 6.82857 8.70991 6.82857H33.0977C33.5597 6.82857 34.0028 7.00843 34.3294 7.32858C34.6561 7.64873 34.8397 8.08295 34.8397 8.53571V32.4357Z" fill="#07124B"/>
</g>
</g>
<defs>
<filter id="filter0_d_9_732" x="-1.51604" y="0.414284" width="42.8396" height="42.1429" filterUnits="userSpaceOnUse" color-interpolation-filters="sRGB">
<feFlood flood-opacity="0" result="BackgroundImageFix"/>
<feColorMatrix in="SourceAlpha" type="matrix" values="0 0 0 0 0 0 0 0 0 0 0 0 0 0 0 0 0 0 127 0" result="hardAlpha"/>
<feOffset dx="-1" dy="1"/>
<feGaussianBlur stdDeviation="2"/>
<feComposite in2="hardAlpha" operator="out"/>
<feColorMatrix type="matrix" values="0 0 0 0 0 0 0 0 0 0 0 0 0 0 0 0 0 0 0.7 0"/>
<feBlend mode="normal" in2="BackgroundImageFix" result="effect1_dropShadow_9_732"/>
<feBlend mode="normal" in="SourceGraphic" in2="effect1_dropShadow_9_732" result="shape"/>
</filter>
<clipPath id="clip0_9_732">
<rect width="41.8076" height="40.9714" fill="white"/>
</clipPath>
</defs>
</svg>
